<svg width="48" height="12" viewBox="0 0 48 12" fill="none" xmlns="http://www.w3.org/2000/svg">
<path d="M7.46096 3.95466C7.46096 4.88328 7.14079 5.6568 6.50036 6.27622C5.86994 6.88462 4.9043 7.18881 3.60244 7.18881H1.45696V11.8479H0V0.688508H3.60244C4.86128 0.688508 5.81687 0.992698 6.4683 1.6011C7.12974 2.20951 7.46096 2.99402 7.46096 3.95466ZM3.60244 5.988C4.41298 5.988 5.01137 5.81193 5.39562 5.45969C5.77988 5.10746 5.972 4.6061 5.972 3.95466C5.972 2.57774 5.18149 1.88926 3.60244 1.88926H1.45696V5.988H3.60244ZM13.6261 2.91399C14.2885 2.91399 14.8859 3.05809 15.4193 3.34628C15.9536 3.62347 16.3699 4.04573 16.6681 4.6111C16.9783 5.17648 17.1324 5.8649 17.1324 6.67645V11.8479H15.6915V6.88459C15.6915 6.00901 15.4733 5.34256 15.035 4.88326C14.5978 4.41395 14.0004 4.17881 13.2419 4.17881C12.4733 4.17881 11.8599 4.419 11.4006 4.89932C10.9523 5.37964 10.7282 6.07906 10.7282 6.99667V11.8479H9.27119V0H10.7282V4.32289C11.0163 3.87459 11.4116 3.52738 11.913 3.28222C12.4253 3.03705 12.9967 2.91399 13.6261 2.91399ZM23.3396 11.992C22.517 11.992 21.7705 11.8049 21.098 11.4316C20.4356 11.0584 19.9133 10.53 19.529 9.84659C19.1548 9.15313 18.9686 8.35257 18.9686 7.44496C18.9686 6.54837 19.1607 5.75886 19.545 5.0754C19.9393 4.38194 20.4737 3.8536 21.1461 3.49036C21.8186 3.11711 22.571 2.92999 23.4036 2.92999C24.2361 2.92999 24.9887 3.11711 25.6611 3.49036C26.3336 3.8536 26.8619 4.37595 27.2462 5.0594C27.6404 5.74286 27.8386 6.53736 27.8386 7.44496C27.8386 8.35257 27.6355 9.15313 27.2302 9.84659C26.8349 10.53 26.2955 11.0584 25.6131 11.4316C24.9296 11.8049 24.1721 11.992 23.3396 11.992ZM23.3396 10.7112C23.8619 10.7112 24.3532 10.5881 24.8126 10.3429C25.2709 10.0977 25.6391 9.72954 25.9173 9.23821C26.2055 8.74688 26.3496 8.14943 26.3496 7.44496C26.3496 6.74049 26.2105 6.1431 25.9333 5.65178C25.6551 5.16045 25.2929 4.79819 24.8446 4.56304C24.3963 4.31787 23.9099 4.19481 23.3876 4.19481C22.8532 4.19481 22.3629 4.31787 21.9146 4.56304C21.4763 4.79819 21.1241 5.16045 20.8579 5.65178C20.5907 6.1431 20.4577 6.74049 20.4577 7.44496C20.4577 8.16044 20.5857 8.76289 20.8419 9.25421C21.1081 9.74554 21.4603 10.1138 21.8986 10.359C22.3359 10.5941 22.8162 10.7112 23.3396 10.7112ZM34.0287 2.91399C35.0964 2.91399 35.961 3.23916 36.6224 3.89059C37.2839 4.53102 37.6151 5.45963 37.6151 6.67645V11.8479H36.1741V6.88459C36.1741 6.00901 35.955 5.34256 35.5177 4.88326C35.0804 4.41395 34.482 4.17881 33.7245 4.17881C32.956 4.17881 32.3425 4.419 31.8832 4.89932C31.4349 5.37964 31.2108 6.07906 31.2108 6.99667V11.8479H29.7538V3.07407H31.2108V4.32289C31.499 3.87459 31.8883 3.52738 32.3796 3.28222C32.8809 3.03705 33.4313 2.91399 34.0287 2.91399ZM48 7.1248C48 7.40199 47.984 7.69613 47.9519 8.00533H40.9393C40.9933 8.86991 41.2865 9.5474 41.8199 10.0387C42.3642 10.5191 43.0207 10.7592 43.7892 10.7592C44.4196 10.7592 44.9419 10.6151 45.3582 10.3269C45.7855 10.0277 46.0847 9.63347 46.2548 9.14214H47.8239C47.5897 9.9857 47.1194 10.6741 46.415 11.2075C45.7105 11.7308 44.8359 11.992 43.7892 11.992C42.9566 11.992 42.2101 11.8049 41.5477 11.4316C40.8973 11.0584 40.3849 10.53 40.0107 9.84659C39.6374 9.15313 39.4503 8.35257 39.4503 7.44496C39.4503 6.53736 39.6324 5.74286 39.9947 5.0594C40.3579 4.37595 40.8653 3.8536 41.5157 3.49036C42.1781 3.11711 42.9356 2.92999 43.7892 2.92999C44.6217 2.92999 45.3582 3.11112 45.9987 3.47436C46.6391 3.8376 47.1304 4.3389 47.4716 4.97933C47.8239 5.60875 48 6.32427 48 7.1248ZM46.495 6.82058C46.495 6.26521 46.3729 5.79089 46.1267 5.39562C45.8816 4.99035 45.5454 4.68616 45.1181 4.48303C44.7018 4.26989 44.2375 4.16281 43.7251 4.16281C42.9886 4.16281 42.3592 4.39794 41.8359 4.86726C41.3235 5.33657 41.0304 5.98803 40.9553 6.82058H46.495Z" fill="#9AA4B2"/>
</svg>
