<svg width="112" height="19" viewBox="0 0 112 19" fill="none" xmlns="http://www.w3.org/2000/svg">
<path d="M8.78265 5.0961C8.78265 5.73462 8.63204 6.33699 8.33085 6.90322C8.02966 7.46946 7.54776 7.93327 6.88514 8.2947C6.22253 8.64408 5.37321 8.8188 4.33712 8.8188H2.06013V13.9149H0V1.35532H4.33712C5.30093 1.35532 6.11413 1.52402 6.77674 1.86135C7.45141 2.18663 7.9514 2.63236 8.27668 3.1986C8.61401 3.76483 8.78265 4.39734 8.78265 5.0961ZM4.33712 7.13816C5.12021 7.13816 5.70449 6.96349 6.09001 6.61412C6.47554 6.25269 6.66835 5.74667 6.66835 5.0961C6.66835 3.72268 5.89126 3.03597 4.33712 3.03597H2.06013V7.13816H4.33712ZM12.8076 5.40328C13.1088 4.89729 13.5063 4.50576 14.0003 4.22866C14.5063 3.93952 15.1026 3.79495 15.7893 3.79495V5.92738H15.2653C14.4581 5.92738 13.8437 6.13219 13.422 6.54181C13.0124 6.95143 12.8076 7.66225 12.8076 8.67425V13.9149H10.7474V3.95757H12.8076V5.40328ZM18.7319 2.6384C18.3585 2.6384 18.0452 2.51191 17.7922 2.25891C17.5392 2.00592 17.4127 1.69264 17.4127 1.31917C17.4127 0.945697 17.5392 0.632487 17.7922 0.379488C18.0452 0.12649 18.3585 0 18.7319 0C19.0934 0 19.4006 0.12649 19.6536 0.379488C19.9066 0.632487 20.033 0.945697 20.033 1.31917C20.033 1.69264 19.9066 2.00592 19.6536 2.25891C19.4006 2.51191 19.0934 2.6384 18.7319 2.6384ZM19.7439 3.95757V13.9149H17.6838V3.95757H19.7439ZM27.4724 3.79495C28.2555 3.79495 28.9543 3.95761 29.5687 4.28289C30.1952 4.60818 30.6831 5.09008 31.0324 5.7286C31.3818 6.36712 31.5565 7.13818 31.5565 8.04175V13.9149H29.5145V8.34893C29.5145 7.45741 29.2916 6.77673 28.8458 6.30687C28.4001 5.82497 27.7917 5.58405 27.0206 5.58405C26.2496 5.58405 25.6352 5.82497 25.1774 6.30687C24.7316 6.77673 24.5087 7.45741 24.5087 8.34893V13.9149H22.4486V3.95757H24.5087V5.0961C24.846 4.68648 25.2737 4.36725 25.7918 4.13834C26.3219 3.90944 26.8821 3.79495 27.4724 3.79495ZM36.5874 5.63822V11.15C36.5874 11.5234 36.6717 11.7946 36.8404 11.9632C37.0211 12.1198 37.3223 12.1981 37.7439 12.1981H39.0089V13.9149H37.3825C36.4549 13.9149 35.7441 13.698 35.2501 13.2643C34.7562 12.8306 34.5092 12.1258 34.5092 11.15V5.63822H33.3346V3.95757H34.5092V1.48186H36.5874V3.95757H39.0089V5.63822H36.5874ZM52.1257 13.9149L49.2343 8.89105H47.6621V13.9149H45.602V1.35532H49.9391C50.9029 1.35532 51.7161 1.52402 52.3787 1.86135C53.0534 2.19868 53.5534 2.65044 53.8787 3.21667C54.216 3.78291 54.3846 4.41542 54.3846 5.11418C54.3846 5.93341 54.1437 6.68035 53.6618 7.35502C53.1919 8.01763 52.463 8.46939 51.4751 8.71034L54.5834 13.9149H52.1257ZM47.6621 7.24656H49.9391C50.7101 7.24656 51.2884 7.05381 51.6739 6.66828C52.0715 6.28276 52.2703 5.76474 52.2703 5.11418C52.2703 4.46361 52.0775 3.95759 51.692 3.59616C51.3065 3.22269 50.7222 3.03597 49.9391 3.03597H47.6621V7.24656ZM66.1461 8.69226C66.1461 9.06574 66.1219 9.40313 66.0738 9.70431H58.4657C58.526 10.4995 58.8211 11.1379 59.3512 11.6198C59.8813 12.1017 60.5319 12.3427 61.3029 12.3427C62.4113 12.3427 63.1944 11.8788 63.6522 10.9512H65.875C65.5738 11.8668 65.0256 12.6198 64.2305 13.2101C63.4474 13.7884 62.4715 14.0775 61.3029 14.0775C60.3512 14.0775 59.4958 13.8667 58.7368 13.445C57.9899 13.0113 57.3996 12.409 56.9658 11.6379C56.5442 10.8548 56.3333 9.95124 56.3333 8.9272C56.3333 7.90316 56.5382 7.00561 56.9478 6.23457C57.3694 5.45148 57.9537 4.84911 58.7007 4.42745C59.4597 4.00578 60.3271 3.79495 61.3029 3.79495C62.2426 3.79495 63.0799 3.99975 63.8148 4.40937C64.5497 4.81899 65.122 5.3973 65.5316 6.14424C65.9412 6.87914 66.1461 7.72846 66.1461 8.69226ZM63.9955 8.04175C63.9835 7.28275 63.7124 6.6743 63.1823 6.21649C62.6522 5.75868 61.9957 5.52982 61.2126 5.52982C60.5018 5.52982 59.8934 5.75868 59.3874 6.21649C58.8814 6.66225 58.5802 7.2707 58.4838 8.04175H63.9955ZM67.4874 8.9272C67.4874 7.90316 67.6922 7.00561 68.1018 6.23457C68.5234 5.45148 69.1017 4.84911 69.8366 4.42745C70.5715 4.00578 71.4148 3.79495 72.3666 3.79495C73.5713 3.79495 74.5653 4.0841 75.3484 4.66238C76.1435 5.22862 76.6796 6.04182 76.9567 7.102H74.734C74.5533 6.60805 74.2641 6.22255 73.8665 5.94546C73.469 5.66837 72.969 5.52982 72.3666 5.52982C71.5233 5.52982 70.8486 5.83097 70.3426 6.43335C69.8487 7.02368 69.6017 7.85497 69.6017 8.9272C69.6017 9.99943 69.8487 10.8367 70.3426 11.4391C70.8486 12.0415 71.5233 12.3427 72.3666 12.3427C73.5593 12.3427 74.3484 11.8186 74.734 10.7705H76.9567C76.6676 11.7825 76.1255 12.5897 75.3303 13.1921C74.5352 13.7824 73.5473 14.0775 72.3666 14.0775C71.4148 14.0775 70.5715 13.8667 69.8366 13.445C69.1017 13.0113 68.5234 12.409 68.1018 11.6379C67.6922 10.8548 67.4874 9.95124 67.4874 8.9272ZM88.1359 8.69226C88.1359 9.06574 88.1117 9.40313 88.0636 9.70431H80.4555C80.5158 10.4995 80.8109 11.1379 81.341 11.6198C81.8711 12.1017 82.5217 12.3427 83.2927 12.3427C84.4011 12.3427 85.1842 11.8788 85.642 10.9512H87.8648C87.5636 11.8668 87.0154 12.6198 86.2203 13.2101C85.4372 13.7884 84.4613 14.0775 83.2927 14.0775C82.341 14.0775 81.4856 13.8667 80.7266 13.445C79.9797 13.0113 79.3893 12.409 78.9556 11.6379C78.5339 10.8548 78.3231 9.95124 78.3231 8.9272C78.3231 7.90316 78.5279 7.00561 78.9375 6.23457C79.3592 5.45148 79.9435 4.84911 80.6905 4.42745C81.4495 4.00578 82.3169 3.79495 83.2927 3.79495C84.2324 3.79495 85.0697 3.99975 85.8046 4.40937C86.5395 4.81899 87.1118 5.3973 87.5214 6.14424C87.931 6.87914 88.1359 7.72846 88.1359 8.69226ZM85.9853 8.04175C85.9733 7.28275 85.7022 6.6743 85.1721 6.21649C84.642 5.75868 83.9855 5.52982 83.2024 5.52982C82.4916 5.52982 81.8832 5.75868 81.3772 6.21649C80.8712 6.66225 80.57 7.2707 80.4736 8.04175H85.9853ZM91.211 2.6384C90.8375 2.6384 90.5242 2.51191 90.2712 2.25891C90.0182 2.00592 89.8918 1.69264 89.8918 1.31917C89.8918 0.945697 90.0182 0.632487 90.2712 0.379488C90.5242 0.12649 90.8375 0 91.211 0C91.5724 0 91.8796 0.12649 92.1326 0.379488C92.3856 0.632487 92.5121 0.945697 92.5121 1.31917C92.5121 1.69264 92.3856 2.00592 92.1326 2.25891C91.8796 2.51191 91.5724 2.6384 91.211 2.6384ZM92.223 3.95757V13.9149H90.1628V3.95757H92.223ZM96.9878 5.42136C97.3371 4.96355 97.813 4.57805 98.4154 4.26482C99.0178 3.95158 99.6984 3.79495 100.457 3.79495C101.325 3.79495 102.114 4.01181 102.825 4.44552C103.548 4.86719 104.114 5.46352 104.524 6.23457C104.933 7.00561 105.138 7.8911 105.138 8.89105C105.138 9.89099 104.933 10.7885 104.524 11.5837C104.114 12.3668 103.548 12.9812 102.825 13.427C102.114 13.8607 101.325 14.0775 100.457 14.0775C99.6984 14.0775 99.0238 13.9269 98.4335 13.6257C97.8431 13.3125 97.3612 12.927 96.9878 12.4692V18.6496H94.9276V3.95757H96.9878V5.42136ZM103.042 8.89105C103.042 8.20434 102.897 7.61403 102.608 7.12008C102.331 6.61408 101.957 6.23461 101.488 5.98161C101.03 5.71657 100.536 5.58405 100.006 5.58405C99.4877 5.58405 98.9937 5.71657 98.5238 5.98161C98.066 6.24666 97.6925 6.63216 97.4034 7.13816C97.1263 7.64415 96.9878 8.24049 96.9878 8.9272C96.9878 9.61391 97.1263 10.2163 97.4034 10.7343C97.6925 11.2403 98.066 11.6259 98.5238 11.8909C98.9937 12.156 99.4877 12.2885 100.006 12.2885C100.536 12.2885 101.03 12.156 101.488 11.8909C101.957 11.6138 102.331 11.2163 102.608 10.6982C102.897 10.1802 103.042 9.57776 103.042 8.89105ZM109.578 5.63822V11.15C109.578 11.5234 109.663 11.7946 109.831 11.9632C110.012 12.1198 110.313 12.1981 110.735 12.1981H112V13.9149H110.374C109.446 13.9149 108.735 13.698 108.241 13.2643C107.747 12.8306 107.5 12.1258 107.5 11.15V5.63822H106.326V3.95757H107.5V1.48186H109.578V3.95757H112V5.63822H109.578Z" fill="white"/>
</svg>
