<svg width="120" height="31" viewBox="0 0 120 31" fill="none" xmlns="http://www.w3.org/2000/svg">
<path d="M0 11.8165C0 9.76142 0.473499 7.91792 1.42043 6.28598C2.3875 4.65404 3.68701 3.38476 5.31895 2.47812C6.97103 1.55134 8.77422 1.08796 10.7285 1.08796C12.9649 1.08796 14.9494 1.64201 16.6821 2.75012C18.4349 3.83808 19.7042 5.38942 20.4899 7.40416H16.3497C15.8057 6.29606 15.0502 5.47002 14.0831 4.92604C13.116 4.38206 11.9978 4.11007 10.7285 4.11007C9.33835 4.11007 8.09928 4.42235 7.01132 5.04692C5.92336 5.67149 5.06711 6.56805 4.44254 7.7366C3.83812 8.90515 3.53588 10.2651 3.53588 11.8165C3.53588 13.3678 3.83812 14.7278 4.44254 15.8963C5.06711 17.0649 5.92336 17.9715 7.01132 18.6162C8.09928 19.2408 9.33835 19.5531 10.7285 19.5531C11.9978 19.5531 13.116 19.2811 14.0831 18.7371C15.0502 18.1931 15.8057 17.3671 16.3497 16.259H20.4899C19.7042 18.2737 18.4349 19.825 16.6821 20.913C14.9494 22.001 12.9649 22.5449 10.7285 22.5449C8.75407 22.5449 6.95089 22.0916 5.31895 21.185C3.68701 20.2582 2.3875 18.9789 1.42043 17.3469C0.473499 15.715 0 13.8715 0 11.8165ZM33.1354 5.43979C34.4047 5.43979 35.533 5.71178 36.5203 6.25576C37.5276 6.79974 38.3133 7.60565 38.8775 8.67346C39.4617 9.74127 39.7539 11.0307 39.7539 12.5418V22.3636H36.3389V13.0555C36.3389 11.5646 35.9662 10.4263 35.2207 9.64053C34.4753 8.83463 33.4578 8.43169 32.1684 8.43169C30.879 8.43169 29.8515 8.83463 29.0859 9.64053C28.3404 10.4263 27.9676 11.5646 27.9676 13.0555V22.3636H24.5224V0H27.9676V7.64594C28.5519 6.94078 29.2873 6.3968 30.1738 6.014C31.0804 5.6312 32.0676 5.43979 33.1354 5.43979ZM43.0007 13.9622C43.0007 12.2899 43.3432 10.8091 44.0282 9.51965C44.7334 8.23021 45.6802 7.23292 46.8689 6.52776C48.0778 5.80245 49.4075 5.43979 50.8581 5.43979C52.1677 5.43979 53.3061 5.70171 54.2731 6.22554C55.2604 6.72923 56.0461 7.36387 56.6303 8.12947V5.71179H60.1058V22.3636H56.6303V19.8855C56.0461 20.6712 55.2503 21.326 54.2429 21.8499C53.2355 22.3737 52.0871 22.6356 50.7977 22.6356C49.3672 22.6356 48.0576 22.273 46.8689 21.5477C45.6802 20.8022 44.7334 19.7747 44.0282 18.4651C43.3432 17.1354 43.0007 15.6344 43.0007 13.9622ZM56.6303 14.0226C56.6303 12.8742 56.3886 11.8769 55.9051 11.0307C55.4417 10.1845 54.8272 9.5398 54.0616 9.09655C53.296 8.65331 52.47 8.43169 51.5835 8.43169C50.697 8.43169 49.8709 8.65331 49.1053 9.09655C48.3397 9.51965 47.7152 10.1543 47.2316 11.0005C46.7682 11.8265 46.5365 12.8138 46.5365 13.9622C46.5365 15.1106 46.7682 16.1179 47.2316 16.9843C47.7152 17.8506 48.3397 18.5155 49.1053 18.9789C49.8911 19.4221 50.7171 19.6437 51.5835 19.6437C52.47 19.6437 53.296 19.4221 54.0616 18.9789C54.8272 18.5356 55.4417 17.8909 55.9051 17.0447C56.3886 16.1784 56.6303 15.171 56.6303 14.0226ZM73.0324 5.43979C74.342 5.43979 75.5105 5.71178 76.538 6.25576C77.5857 6.79974 78.4017 7.60565 78.9859 8.67346C79.5702 9.74127 79.8623 11.0307 79.8623 12.5418V22.3636H76.4473V13.0555C76.4473 11.5646 76.0746 10.4263 75.3292 9.64053C74.5837 8.83463 73.5663 8.43169 72.2769 8.43169C70.9874 8.43169 69.9599 8.83463 69.1943 9.64053C68.4489 10.4263 68.0761 11.5646 68.0761 13.0555V22.3636H64.6309V5.71179H68.0761V7.61572C68.6402 6.93071 69.3555 6.3968 70.2218 6.014C71.1083 5.6312 72.0452 5.43979 73.0324 5.43979ZM90.9656 5.43979C92.255 5.43979 93.3933 5.70171 94.3805 6.22554C95.3879 6.72923 96.1737 7.36387 96.7378 8.12947V5.71179H100.213V22.6356C100.213 24.1668 99.8909 25.5268 99.2462 26.7155C98.6014 27.9243 97.6646 28.8712 96.4356 29.5562C95.2268 30.2413 93.7762 30.5838 92.0838 30.5838C89.8273 30.5838 87.9535 30.0499 86.4626 28.9821C84.9717 27.9344 84.1255 26.5039 83.924 24.6906H87.339C87.601 25.557 88.155 26.2521 89.0012 26.7759C89.8676 27.3199 90.8951 27.5919 92.0838 27.5919C93.4739 27.5919 94.5921 27.1688 95.4383 26.3226C96.3047 25.4764 96.7378 24.2474 96.7378 22.6356V19.8553C96.1535 20.641 95.3577 21.3059 94.3504 21.8499C93.3631 22.3737 92.2349 22.6356 90.9656 22.6356C89.515 22.6356 88.1852 22.273 86.9764 21.5477C85.7877 20.8022 84.8408 19.7747 84.1356 18.4651C83.4506 17.1354 83.1081 15.6344 83.1081 13.9622C83.1081 12.2899 83.4506 10.8091 84.1356 9.51965C84.8408 8.23021 85.7877 7.23292 86.9764 6.52776C88.1852 5.80245 89.515 5.43979 90.9656 5.43979ZM96.7378 14.0226C96.7378 12.8742 96.496 11.8769 96.0125 11.0307C95.5491 10.1845 94.9346 9.5398 94.169 9.09655C93.4034 8.65331 92.5774 8.43169 91.6909 8.43169C90.8044 8.43169 89.9783 8.65331 89.2127 9.09655C88.4471 9.51965 87.8226 10.1543 87.339 11.0005C86.8756 11.8265 86.6439 12.8138 86.6439 13.9622C86.6439 15.1106 86.8756 16.1179 87.339 16.9843C87.8226 17.8506 88.4471 18.5155 89.2127 18.9789C89.9985 19.4221 90.8245 19.6437 91.6909 19.6437C92.5774 19.6437 93.4034 19.4221 94.169 18.9789C94.9346 18.5356 95.5491 17.8909 96.0125 17.0447C96.496 16.1784 96.7378 15.171 96.7378 14.0226ZM120 13.6297C120 14.2543 119.96 14.8184 119.879 15.3221H107.156C107.257 16.6518 107.75 17.7196 108.637 18.5255C109.523 19.3314 110.611 19.7344 111.901 19.7344C113.754 19.7344 115.064 18.9587 115.83 17.4074H119.547C119.043 18.9386 118.126 20.1978 116.797 21.185C115.487 22.1521 113.855 22.6356 111.901 22.6356C110.309 22.6356 108.879 22.283 107.609 21.5779C106.36 20.8526 105.373 19.8452 104.648 18.5558C103.943 17.2462 103.59 15.7351 103.59 14.0226C103.59 12.3101 103.932 10.8091 104.617 9.51965C105.323 8.21007 106.3 7.2027 107.549 6.49754C108.818 5.79238 110.269 5.43979 111.901 5.43979C113.472 5.43979 114.872 5.78231 116.101 6.46732C117.33 7.15233 118.288 8.11941 118.973 9.36855C119.658 10.5975 120 12.0179 120 13.6297ZM116.404 12.5418C116.384 11.2725 115.93 10.255 115.044 9.48943C114.157 8.72383 113.059 8.34103 111.75 8.34103C110.561 8.34103 109.544 8.72383 108.697 9.48943C107.851 10.2349 107.347 11.2523 107.186 12.5418H116.404Z" fill="#B42318"/>
</svg>
