<svg width="41" height="13" viewBox="0 0 41 13" fill="none" xmlns="http://www.w3.org/2000/svg">
<path d="M1.4598 2.21378V5.95157H5.53446V7.15472H1.4598V11.0047H6.0157V12.2079H0V1.01063H6.0157V2.21378H1.4598ZM18.7961 3.25655C19.4798 3.25655 20.0895 3.40093 20.6249 3.68968C21.1593 3.96741 21.5813 4.39049 21.8922 4.95697C22.202 5.52344 22.3574 6.21321 22.3574 7.02633V12.2079H20.9136V7.23488C20.9136 6.35759 20.694 5.68985 20.2559 5.22965C19.8277 4.75942 19.2453 4.52383 18.5073 4.52383C17.7474 4.52383 17.1437 4.76949 16.6946 5.26178C16.2454 5.74303 16.0208 6.44387 16.0208 7.36327V12.2079H14.577V7.23488C14.577 6.35759 14.3575 5.68985 13.9193 5.22965C13.4912 4.75942 12.9087 4.52383 12.1708 4.52383C11.4108 4.52383 10.8072 4.76949 10.358 5.26178C9.90885 5.74303 9.68427 6.44387 9.68427 7.36327V12.2079H8.22447V3.41694H9.68427V4.68422C9.97302 4.22402 10.3581 3.87113 10.8393 3.62549C11.3306 3.37985 11.871 3.25655 12.4595 3.25655C13.1974 3.25655 13.8492 3.42195 14.4167 3.75381C14.9831 4.08568 15.4052 4.57194 15.6839 5.21362C15.9296 4.593 16.3356 4.11174 16.9031 3.76985C17.4696 3.42796 18.1002 3.25655 18.7961 3.25655ZM24.2062 7.78031C24.2062 6.88197 24.3877 6.09593 24.7516 5.42217C25.1156 4.73738 25.6128 4.20802 26.2435 3.83404C26.8851 3.46007 27.5961 3.27258 28.3771 3.27258C29.1471 3.27258 29.8158 3.43798 30.3823 3.76985C30.9488 4.10171 31.3719 4.51879 31.6496 5.0211V3.41694H33.1254V12.2079H31.6496V10.5716C31.3609 11.0849 30.9277 11.5131 30.3502 11.855C29.7837 12.1868 29.12 12.3522 28.361 12.3522C27.58 12.3522 26.8741 12.1598 26.2435 11.7747C25.6128 11.3897 25.1156 10.8494 24.7516 10.1546C24.3877 9.45974 24.2062 8.66763 24.2062 7.78031ZM31.6496 7.79635C31.6496 7.13362 31.5162 6.55614 31.2485 6.06386C30.9808 5.57157 30.6179 5.1976 30.1577 4.94093C29.7086 4.67323 29.2112 4.53986 28.6658 4.53986C28.1204 4.53986 27.6231 4.66823 27.1739 4.9249C26.7248 5.18157 26.3668 5.55554 26.0991 6.04783C25.8314 6.54011 25.6981 7.11758 25.6981 7.78031C25.6981 8.45407 25.8314 9.04262 26.0991 9.54493C26.3668 10.0372 26.7248 10.4162 27.1739 10.6839C27.6231 10.9406 28.1204 11.0689 28.6658 11.0689C29.2112 11.0689 29.7086 10.9406 30.1577 10.6839C30.6179 10.4162 30.9808 10.0372 31.2485 9.54493C31.5162 9.04262 31.6496 8.45908 31.6496 7.79635ZM36.3469 1.9892C36.0681 1.9892 35.8335 1.89298 35.641 1.70048C35.4485 1.50798 35.3523 1.27232 35.3523 0.9946C35.3523 0.716875 35.4485 0.481281 35.641 0.288779C35.8335 0.0962761 36.0681 0 36.3469 0C36.6136 0 36.8381 0.0962761 37.0206 0.288779C37.2131 0.481281 37.3094 0.716875 37.3094 0.9946C37.3094 1.27232 37.2131 1.50798 37.0206 1.70048C36.8381 1.89298 36.6136 1.9892 36.3469 1.9892ZM37.0527 3.41694V12.2079H35.5929V3.41694H37.0527ZM41 0.336878V12.2079H39.5402V0.336878H41Z" fill="#9AA4B2"/>
</svg>
