<svg width="271" height="65" viewBox="0 0 271 65" fill="none" xmlns="http://www.w3.org/2000/svg">
<path d="M23.0528 47.7706L13.1913 30.3529H8.96496V47.7706H0V3.07372H16.7774C20.2353 3.07372 23.1809 3.69307 25.6142 4.93076C28.0476 6.12642 29.8626 7.76933 31.0573 9.8615C32.296 11.9106 32.9143 14.2159 32.9143 16.7774C32.9143 19.723 32.0609 22.3915 30.3529 24.7818C28.646 27.1301 26.1055 28.752 22.7326 29.6485L33.4266 47.7706H23.0528ZM8.96496 23.6292H16.4572C18.8905 23.6292 20.7055 23.0528 21.9002 21.9002C23.0959 20.7045 23.6932 19.0616 23.6932 16.9695C23.6932 14.9203 23.0959 13.3404 21.9002 12.2308C20.7055 11.0782 18.8905 10.5019 16.4572 10.5019H8.96496V23.6292ZM49.9878 17.4177C51.1405 15.7958 52.7204 14.4511 54.7265 13.3835C56.7756 12.2738 59.1029 11.7185 61.7064 11.7185C64.7381 11.7185 67.4695 12.4659 69.9029 13.9598C72.3793 15.4536 74.3214 17.5888 75.7302 20.3634C77.182 23.0959 77.9074 26.2756 77.9074 29.9047C77.9074 33.5337 77.182 36.7565 75.7302 39.5741C74.3214 42.3486 72.3793 44.5048 69.9029 46.0417C67.4695 47.5785 64.7381 48.3469 61.7064 48.3469C59.1029 48.3469 56.7976 47.8136 54.7905 46.746C52.8274 45.6785 51.2265 44.3337 49.9878 42.7118V64.676H41.0229V12.2949H49.9878V17.4177ZM68.7503 29.9047C68.7503 27.7705 68.302 25.9345 67.4055 24.3976C66.5521 22.8177 65.3994 21.6231 63.9476 20.8116C62.5388 20.0001 61.0019 19.5949 59.337 19.5949C57.7151 19.5949 56.1783 20.0222 54.7265 20.8756C53.3177 21.6871 52.1651 22.8817 51.2686 24.4616C50.4151 26.0415 49.9878 27.8986 49.9878 30.0327C49.9878 32.1669 50.4151 34.024 51.2686 35.6038C52.1651 37.1837 53.3177 38.4004 54.7265 39.2539C56.1783 40.0653 57.7151 40.4705 59.337 40.4705C61.0019 40.4705 62.5388 40.0433 63.9476 39.1898C65.3994 38.3364 66.5521 37.1197 67.4055 35.5398C68.302 33.9599 68.7503 32.0819 68.7503 29.9047ZM88.3922 48.2189C86.7703 48.2189 85.4256 47.7276 84.358 46.746C83.3334 45.7215 82.8211 44.4618 82.8211 42.9679C82.8211 41.4741 83.3334 40.2354 84.358 39.2539C85.4256 38.2293 86.7703 37.717 88.3922 37.717C89.9721 37.717 91.2738 38.2293 92.2984 39.2539C93.3229 40.2354 93.8352 41.4741 93.8352 42.9679C93.8352 44.4618 93.3229 45.7215 92.2984 46.746C91.2738 47.7276 89.9721 48.2189 88.3922 48.2189ZM115.418 13.3835C115.632 9.11409 117.126 5.82725 119.901 3.52197C122.718 1.17366 126.411 0 130.979 0C134.096 0 136.764 0.555311 138.983 1.66493C141.204 2.73252 142.869 4.20535 143.978 6.08339C145.131 7.91941 145.707 10.0106 145.707 12.3589C145.707 15.0484 145.003 17.3327 143.594 19.2107C142.228 21.0467 140.584 22.2844 138.663 22.9248V23.1809C141.14 23.9493 143.061 25.3151 144.426 27.2792C145.835 29.2433 146.54 31.7617 146.54 34.8354C146.54 37.3968 145.942 39.6811 144.747 41.6872C143.594 43.6933 141.865 45.2732 139.56 46.4259C137.297 47.5355 134.565 48.0908 131.363 48.0908C126.539 48.0908 122.612 46.8741 119.581 44.4408C116.55 42.0074 114.949 38.4214 114.778 33.6828H123.487C123.573 35.7749 124.277 37.4609 125.6 38.7416C126.967 39.9793 128.824 40.5986 131.171 40.5986C133.348 40.5986 135.013 40.0013 136.166 38.8056C137.362 37.5679 137.959 35.9881 137.959 34.067C137.959 31.5056 137.148 29.6695 135.525 28.5599C133.904 27.4503 131.385 26.895 127.969 26.895H126.112V19.5309H127.969C134.032 19.5309 137.062 17.5028 137.062 13.4475C137.062 11.6115 136.508 10.1817 135.397 9.15711C134.331 8.13254 132.772 7.62024 130.723 7.62024C128.717 7.62024 127.159 8.17555 126.048 9.28517C124.982 10.3528 124.362 11.7185 124.191 13.3835H115.418ZM153.625 23.8213C153.625 16.4362 154.947 10.6509 157.595 6.46761C160.284 2.28428 164.724 0.192108 170.914 0.192108C177.104 0.192108 181.522 2.28428 184.17 6.46761C186.859 10.6509 188.204 16.4362 188.204 23.8213C188.204 31.2494 186.859 37.0767 184.17 41.303C181.522 45.5294 177.104 47.6425 170.914 47.6425C164.724 47.6425 160.284 45.5294 157.595 41.303C154.947 37.0767 153.625 31.2494 153.625 23.8213ZM179.367 23.8213C179.367 20.6625 179.153 18.015 178.727 15.8809C178.342 13.7036 177.531 11.9316 176.293 10.5659C175.098 9.20012 173.305 8.51675 170.914 8.51675C168.523 8.51675 166.709 9.20012 165.471 10.5659C164.275 11.9316 163.464 13.7036 163.038 15.8809C162.654 18.015 162.461 20.6625 162.461 23.8213C162.461 27.0661 162.654 29.7976 163.038 32.0178C163.422 34.1951 164.232 35.967 165.471 37.3328C166.709 38.6565 168.523 39.3179 170.914 39.3179C173.305 39.3179 175.119 38.6565 176.357 37.3328C177.595 35.967 178.406 34.1951 178.791 32.0178C179.175 29.7976 179.367 27.0661 179.367 23.8213ZM195.023 23.8213C195.023 16.4362 196.345 10.6509 198.993 6.46761C201.682 2.28428 206.122 0.192108 212.312 0.192108C218.502 0.192108 222.92 2.28428 225.568 6.46761C228.257 10.6509 229.602 16.4362 229.602 23.8213C229.602 31.2494 228.257 37.0767 225.568 41.303C222.92 45.5294 218.502 47.6425 212.312 47.6425C206.122 47.6425 201.682 45.5294 198.993 41.303C196.345 37.0767 195.023 31.2494 195.023 23.8213ZM220.765 23.8213C220.765 20.6625 220.551 18.015 220.125 15.8809C219.74 13.7036 218.929 11.9316 217.691 10.5659C216.496 9.20012 214.703 8.51675 212.312 8.51675C209.921 8.51675 208.107 9.20012 206.869 10.5659C205.674 11.9316 204.862 13.7036 204.436 15.8809C204.052 18.015 203.86 20.6625 203.86 23.8213C203.86 27.0661 204.052 29.7976 204.436 32.0178C204.82 34.1951 205.631 35.967 206.869 37.3328C208.107 38.6565 209.921 39.3179 212.312 39.3179C214.703 39.3179 216.517 38.6565 217.755 37.3328C218.993 35.967 219.804 34.1951 220.189 32.0178C220.573 29.7976 220.765 27.0661 220.765 23.8213ZM236.421 23.8213C236.421 16.4362 237.743 10.6509 240.391 6.46761C243.08 2.28428 247.52 0.192108 253.71 0.192108C259.9 0.192108 264.318 2.28428 266.966 6.46761C269.655 10.6509 271 16.4362 271 23.8213C271 31.2494 269.655 37.0767 266.966 41.303C264.318 45.5294 259.9 47.6425 253.71 47.6425C247.52 47.6425 243.08 45.5294 240.391 41.303C237.743 37.0767 236.421 31.2494 236.421 23.8213ZM262.163 23.8213C262.163 20.6625 261.949 18.015 261.523 15.8809C261.138 13.7036 260.327 11.9316 259.089 10.5659C257.894 9.20012 256.101 8.51675 253.71 8.51675C251.319 8.51675 249.505 9.20012 248.267 10.5659C247.072 11.9316 246.26 13.7036 245.834 15.8809C245.45 18.015 245.258 20.6625 245.258 23.8213C245.258 27.0661 245.45 29.7976 245.834 32.0178C246.218 34.1951 247.029 35.967 248.267 37.3328C249.505 38.6565 251.319 39.3179 253.71 39.3179C256.101 39.3179 257.915 38.6565 259.153 37.3328C260.391 35.967 261.203 34.1951 261.587 32.0178C261.971 29.7976 262.163 27.0661 262.163 23.8213Z" fill="#B42318"/>
</svg>
