<svg width="245" height="31" viewBox="0 0 245 31" fill="none" xmlns="http://www.w3.org/2000/svg">
<path d="M14.5989 8.47093C14.5989 9.5323 14.3485 10.5336 13.8479 11.4748C13.3473 12.416 12.5462 13.1871 11.4448 13.7878C10.3434 14.3686 8.93155 14.6589 7.20932 14.6589H3.42441V23.1299H0V2.25291H7.20932C8.81139 2.25291 10.1631 2.53327 11.2645 3.09399C12.386 3.63469 13.2171 4.37565 13.7578 5.31686C14.3185 6.25808 14.5989 7.30943 14.5989 8.47093ZM7.20932 11.8653C8.51101 11.8653 9.48223 11.575 10.1231 10.9942C10.7639 10.3934 11.0843 9.55233 11.0843 8.47093C11.0843 6.18798 9.79266 5.04653 7.20932 5.04653H3.42441V11.8653H7.20932ZM16.7236 14.7791C16.7236 13.117 17.064 11.645 17.7449 10.3634C18.4458 9.08174 19.387 8.09045 20.5686 7.38955C21.7701 6.66862 23.0918 6.30817 24.5337 6.30817C25.8354 6.30817 26.9669 6.5685 27.9281 7.08917C28.9094 7.58982 29.6903 8.22062 30.2711 8.9816V6.5785H33.7256V23.1299H30.2711V20.6667C29.6903 21.4477 28.8993 22.0985 27.898 22.6192C26.8967 23.1399 25.7553 23.4002 24.4736 23.4002C23.0518 23.4002 21.7501 23.0398 20.5686 22.3188C19.387 21.5779 18.4458 20.5566 17.7449 19.2549C17.064 17.9332 16.7236 16.4412 16.7236 14.7791ZM30.2711 14.8392C30.2711 13.6977 30.0308 12.7064 29.5502 11.8653C29.0896 11.0242 28.4788 10.3834 27.7178 9.94283C26.9568 9.50227 26.1357 9.28201 25.2546 9.28201C24.3735 9.28201 23.5524 9.50227 22.7915 9.94283C22.0305 10.3634 21.4097 10.9942 20.9291 11.8353C20.4685 12.6564 20.2382 13.6376 20.2382 14.7791C20.2382 15.9206 20.4685 16.9219 20.9291 17.783C21.4097 18.6441 22.0305 19.305 22.7915 19.7655C23.5725 20.2061 24.3935 20.4264 25.2546 20.4264C26.1357 20.4264 26.9568 20.2061 27.7178 19.7655C28.4788 19.325 29.0896 18.6841 29.5502 17.8431C30.0308 16.9819 30.2711 15.9806 30.2711 14.8392ZM39.9656 4.38567C39.3448 4.38567 38.8241 4.17539 38.4036 3.75485C37.9831 3.33431 37.7728 2.81364 37.7728 2.19283C37.7728 1.57203 37.9831 1.05136 38.4036 0.63082C38.8241 0.210276 39.3448 0 39.9656 0C40.5664 0 41.0771 0.210276 41.4976 0.63082C41.9182 1.05136 42.1284 1.57203 42.1284 2.19283C42.1284 2.81364 41.9182 3.33431 41.4976 3.75485C41.0771 4.17539 40.5664 4.38567 39.9656 4.38567ZM41.6478 6.5785V23.1299H38.2234V6.5785H41.6478ZM45.0022 14.7791C45.0022 13.117 45.3426 11.645 46.0234 10.3634C46.7243 9.08174 47.6656 8.09045 48.8471 7.38955C50.0486 6.66862 51.3803 6.30817 52.8422 6.30817C53.9236 6.30817 54.9851 6.54848 56.0264 7.0291C57.0878 7.48969 57.9288 8.11048 58.5496 8.89149V0.901158H62.0041V23.1299H58.5496V20.6367C57.9889 21.4377 57.2079 22.0985 56.2066 22.6192C55.2254 23.1399 54.0939 23.4002 52.8122 23.4002C51.3704 23.4002 50.0486 23.0398 48.8471 22.3188C47.6656 21.5779 46.7243 20.5566 46.0234 19.2549C45.3426 17.9332 45.0022 16.4412 45.0022 14.7791ZM58.5496 14.8392C58.5496 13.6977 58.3093 12.7064 57.8287 11.8653C57.3681 11.0242 56.7573 10.3834 55.9963 9.94283C55.2354 9.50227 54.4143 9.28201 53.5331 9.28201C52.652 9.28201 51.831 9.50227 51.07 9.94283C50.309 10.3634 49.6882 10.9942 49.2076 11.8353C48.747 12.6564 48.5167 13.6376 48.5167 14.7791C48.5167 15.9206 48.747 16.9219 49.2076 17.783C49.6882 18.6441 50.309 19.305 51.07 19.7655C51.851 20.2061 52.672 20.4264 53.5331 20.4264C54.4143 20.4264 55.2354 20.2061 55.9963 19.7655C56.7573 19.325 57.3681 18.6841 57.8287 17.8431C58.3093 16.9819 58.5496 15.9806 58.5496 14.8392ZM85.149 23.1299L80.3428 14.7791H77.7294V23.1299H74.305V2.25291H81.5143C83.1163 2.25291 84.4681 2.53327 85.5695 3.09399C86.691 3.65472 87.5221 4.40569 88.0628 5.3469C88.6235 6.28812 88.9038 7.3395 88.9038 8.501C88.9038 9.86276 88.5033 11.1043 87.7023 12.2258C86.9213 13.3272 85.7097 14.0782 84.0676 14.4787L89.2343 23.1299H85.149ZM77.7294 12.0456H81.5143C82.7959 12.0456 83.7572 11.7252 84.398 11.0843C85.0589 10.4435 85.3893 9.5824 85.3893 8.501C85.3893 7.4196 85.0689 6.5785 84.4281 5.97772C83.7872 5.35692 82.816 5.04653 81.5143 5.04653H77.7294V12.0456ZM96.7089 9.01164C97.2896 8.25066 98.0807 7.60985 99.082 7.08917C100.083 6.5685 101.215 6.30817 102.476 6.30817C103.918 6.30817 105.23 6.66862 106.411 7.38955C107.613 8.09045 108.554 9.08174 109.235 10.3634C109.916 11.645 110.256 13.117 110.256 14.7791C110.256 16.4412 109.916 17.9332 109.235 19.2549C108.554 20.5566 107.613 21.5779 106.411 22.3188C105.23 23.0398 103.918 23.4002 102.476 23.4002C101.215 23.4002 100.093 23.1499 99.112 22.6492C98.1307 22.1286 97.3297 21.4878 96.7089 20.7268V31H93.2845V6.5785H96.7089V9.01164ZM106.772 14.7791C106.772 13.6376 106.532 12.6564 106.051 11.8353C105.59 10.9942 104.97 10.3634 104.189 9.94283C103.428 9.50227 102.607 9.28201 101.725 9.28201C100.864 9.28201 100.043 9.50227 99.2622 9.94283C98.5013 10.3834 97.8804 11.0242 97.3998 11.8653C96.9392 12.7064 96.7089 13.6977 96.7089 14.8392C96.7089 15.9806 96.9392 16.9819 97.3998 17.8431C97.8804 18.6841 98.5013 19.325 99.2622 19.7655C100.043 20.2061 100.864 20.4264 101.725 20.4264C102.607 20.4264 103.428 20.2061 104.189 19.7655C104.97 19.305 105.59 18.6441 106.051 17.783C106.532 16.9219 106.772 15.9206 106.772 14.7791ZM115.026 23.3401C114.405 23.3401 113.884 23.1299 113.464 22.7093C113.043 22.2888 112.833 21.7681 112.833 21.1473C112.833 20.5265 113.043 20.0058 113.464 19.5853C113.884 19.1648 114.405 18.9545 115.026 18.9545C115.626 18.9545 116.137 19.1648 116.558 19.5853C116.978 20.0058 117.188 20.5265 117.188 21.1473C117.188 21.7681 116.978 22.2888 116.558 22.7093C116.137 23.1299 115.626 23.3401 115.026 23.3401ZM130.134 18.4739C132.057 16.8117 133.569 15.4499 134.67 14.3886C135.791 13.3072 136.723 12.1857 137.464 11.0242C138.205 9.86275 138.575 8.70124 138.575 7.53974C138.575 6.33819 138.285 5.39696 137.704 4.71608C137.143 4.0352 136.252 3.69477 135.03 3.69477C133.849 3.69477 132.928 4.07528 132.267 4.83626C131.626 5.57722 131.286 6.57851 131.246 7.84014H127.941C128.001 5.55719 128.682 3.81494 129.984 2.61339C131.306 1.39181 132.978 0.781008 135 0.781008C137.183 0.781008 138.885 1.3818 140.107 2.58335C141.349 3.78491 141.969 5.38696 141.969 7.38955C141.969 8.83141 141.599 10.2232 140.858 11.565C140.137 12.8867 139.266 14.0782 138.245 15.1395C137.243 16.1809 135.962 17.3925 134.4 18.7742L133.048 19.9758H142.57V22.8295H127.971V20.3363L130.134 18.4739ZM149.844 17.1822C150.044 18.1835 150.474 18.9445 151.135 19.4651C151.796 19.9858 152.687 20.2462 153.809 20.2462C155.23 20.2462 156.272 19.6854 156.933 18.564C157.594 17.4425 157.924 15.5301 157.924 12.8266C157.443 13.5074 156.762 14.0381 155.881 14.4186C155.02 14.7791 154.079 14.9593 153.058 14.9593C151.756 14.9593 150.574 14.699 149.513 14.1783C148.452 13.6376 147.611 12.8466 146.99 11.8053C146.389 10.7439 146.089 9.46223 146.089 7.96029C146.089 5.75745 146.73 4.00519 148.011 2.7035C149.313 1.3818 151.095 0.720932 153.358 0.720932C156.082 0.720932 158.014 1.63212 159.156 3.45447C160.317 5.2568 160.898 8.03038 160.898 11.7752C160.898 14.3586 160.678 16.4713 160.237 18.1134C159.816 19.7555 159.075 20.9971 158.014 21.8382C156.953 22.6793 155.481 23.0998 153.598 23.0998C151.456 23.0998 149.803 22.5391 148.642 21.4177C147.48 20.2962 146.83 18.8844 146.689 17.1822H149.844ZM153.658 12.0756C154.86 12.0756 155.801 11.7051 156.482 10.9642C157.183 10.2032 157.533 9.2019 157.533 7.96029C157.533 6.57851 157.163 5.50713 156.422 4.74615C155.701 3.96514 154.71 3.57462 153.448 3.57462C152.187 3.57462 151.185 3.97515 150.444 4.77619C149.723 5.5572 149.363 6.58853 149.363 7.87018C149.363 9.09176 149.713 10.1031 150.414 10.9041C151.135 11.6851 152.217 12.0756 153.658 12.0756ZM176.421 6.30817C176.201 5.38698 175.8 4.69608 175.219 4.23548C174.639 3.77489 173.827 3.54459 172.786 3.54459C171.204 3.54459 170.023 4.15536 169.242 5.37694C168.461 6.57849 168.05 8.58108 168.01 11.3847C168.531 10.5036 169.292 9.8227 170.293 9.34208C171.294 8.86146 172.376 8.62115 173.537 8.62115C174.859 8.62115 176.02 8.91152 177.022 9.49227C178.043 10.053 178.834 10.874 179.395 11.9554C179.975 13.0368 180.266 14.3285 180.266 15.8304C180.266 17.2323 179.985 18.4839 179.425 19.5853C178.884 20.6867 178.073 21.5579 176.992 22.1987C175.91 22.8195 174.609 23.1299 173.087 23.1299C171.024 23.1299 169.402 22.6793 168.22 21.7781C167.059 20.8569 166.238 19.5653 165.757 17.9031C165.297 16.241 165.066 14.1683 165.066 11.6851C165.066 4.35564 167.65 0.690895 172.816 0.690895C174.819 0.690895 176.391 1.23159 177.532 2.31298C178.694 3.39438 179.375 4.72612 179.575 6.30817H176.421ZM172.786 11.5049C171.565 11.5049 170.523 11.8753 169.662 12.6163C168.821 13.3372 168.4 14.3886 168.4 15.7704C168.4 17.1522 168.791 18.2536 169.572 19.0747C170.373 19.8757 171.484 20.2762 172.906 20.2762C174.168 20.2762 175.159 19.8857 175.88 19.1047C176.621 18.3237 176.992 17.2823 176.992 15.9806C176.992 14.6189 176.631 13.5375 175.91 12.7365C175.209 11.9154 174.168 11.5049 172.786 11.5049ZM185.751 23.3401C185.13 23.3401 184.609 23.1299 184.189 22.7093C183.768 22.2888 183.558 21.7681 183.558 21.1473C183.558 20.5265 183.768 20.0058 184.189 19.5853C184.609 19.1648 185.13 18.9545 185.751 18.9545C186.352 18.9545 186.862 19.1648 187.283 19.5853C187.703 20.0058 187.914 20.5265 187.914 21.1473C187.914 21.7681 187.703 22.2888 187.283 22.7093C186.862 23.1299 186.352 23.3401 185.751 23.3401ZM195.43 17.1822C195.631 18.1835 196.061 18.9445 196.722 19.4651C197.383 19.9858 198.274 20.2462 199.396 20.2462C200.817 20.2462 201.859 19.6854 202.52 18.564C203.18 17.4425 203.511 15.5301 203.511 12.8266C203.03 13.5074 202.349 14.0381 201.468 14.4186C200.607 14.7791 199.666 14.9593 198.645 14.9593C197.343 14.9593 196.161 14.699 195.1 14.1783C194.039 13.6376 193.198 12.8466 192.577 11.8053C191.976 10.7439 191.676 9.46223 191.676 7.96029C191.676 5.75745 192.316 4.00519 193.598 2.7035C194.9 1.3818 196.682 0.720932 198.945 0.720932C201.668 0.720932 203.601 1.63212 204.742 3.45447C205.904 5.2568 206.485 8.03038 206.485 11.7752C206.485 14.3586 206.264 16.4713 205.824 18.1134C205.403 19.7555 204.662 20.9971 203.601 21.8382C202.54 22.6793 201.068 23.0998 199.185 23.0998C197.043 23.0998 195.39 22.5391 194.229 21.4177C193.067 20.2962 192.417 18.8844 192.276 17.1822H195.43ZM199.245 12.0756C200.447 12.0756 201.388 11.7051 202.069 10.9642C202.77 10.2032 203.12 9.2019 203.12 7.96029C203.12 6.57851 202.75 5.50713 202.009 4.74615C201.288 3.96514 200.297 3.57462 199.035 3.57462C197.773 3.57462 196.772 3.97515 196.031 4.77619C195.31 5.5572 194.95 6.58853 194.95 7.87018C194.95 9.09176 195.3 10.1031 196.001 10.9041C196.722 11.6851 197.804 12.0756 199.245 12.0756ZM214.498 17.1822C214.698 18.1835 215.129 18.9445 215.79 19.4651C216.451 19.9858 217.342 20.2462 218.463 20.2462C219.885 20.2462 220.926 19.6854 221.587 18.564C222.248 17.4425 222.578 15.5301 222.578 12.8266C222.098 13.5074 221.417 14.0381 220.536 14.4186C219.675 14.7791 218.734 14.9593 217.712 14.9593C216.411 14.9593 215.229 14.699 214.168 14.1783C213.106 13.6376 212.265 12.8466 211.644 11.8053C211.044 10.7439 210.743 9.46223 210.743 7.96029C210.743 5.75745 211.384 4.00519 212.666 2.7035C213.967 1.3818 215.75 0.720932 218.013 0.720932C220.736 0.720932 222.669 1.63212 223.81 3.45447C224.972 5.2568 225.552 8.03038 225.552 11.7752C225.552 14.3586 225.332 16.4713 224.891 18.1134C224.471 19.7555 223.73 20.9971 222.669 21.8382C221.607 22.6793 220.135 23.0998 218.253 23.0998C216.11 23.0998 214.458 22.5391 213.296 21.4177C212.135 20.2962 211.484 18.8844 211.344 17.1822H214.498ZM218.313 12.0756C219.515 12.0756 220.456 11.7051 221.137 10.9642C221.838 10.2032 222.188 9.2019 222.188 7.96029C222.188 6.57851 221.818 5.50713 221.077 4.74615C220.356 3.96514 219.364 3.57462 218.103 3.57462C216.841 3.57462 215.84 3.97515 215.099 4.77619C214.378 5.5572 214.017 6.58853 214.017 7.87018C214.017 9.09176 214.368 10.1031 215.069 10.9041C215.79 11.6851 216.871 12.0756 218.313 12.0756ZM241.075 6.30817C240.855 5.38698 240.455 4.69608 239.874 4.23548C239.293 3.77489 238.482 3.54459 237.441 3.54459C235.859 3.54459 234.677 4.15536 233.896 5.37694C233.115 6.57849 232.705 8.58108 232.665 11.3847C233.185 10.5036 233.946 9.8227 234.947 9.34208C235.949 8.86146 237.03 8.62115 238.192 8.62115C239.513 8.62115 240.675 8.91152 241.676 9.49227C242.697 10.053 243.488 10.874 244.049 11.9554C244.63 13.0368 244.92 14.3285 244.92 15.8304C244.92 17.2323 244.64 18.4839 244.079 19.5853C243.539 20.6867 242.727 21.5579 241.646 22.1987C240.565 22.8195 239.263 23.1299 237.741 23.1299C235.678 23.1299 234.056 22.6793 232.875 21.7781C231.713 20.8569 230.892 19.5653 230.412 17.9031C229.951 16.241 229.721 14.1683 229.721 11.6851C229.721 4.35564 232.304 0.690895 237.471 0.690895C239.473 0.690895 241.045 1.23159 242.187 2.31298C243.348 3.39438 244.029 4.72612 244.229 6.30817H241.075ZM237.441 11.5049C236.219 11.5049 235.178 11.8753 234.317 12.6163C233.476 13.3372 233.055 14.3886 233.055 15.7704C233.055 17.1522 233.446 18.2536 234.227 19.0747C235.028 19.8757 236.139 20.2762 237.561 20.2762C238.822 20.2762 239.814 19.8857 240.535 19.1047C241.276 18.3237 241.646 17.2823 241.646 15.9806C241.646 14.6189 241.286 13.5375 240.565 12.7365C239.864 11.9154 238.822 11.5049 237.441 11.5049Z" fill="#697586"/>
</svg>
