<svg width="34" height="32" viewBox="0 0 34 32" fill="none" xmlns="http://www.w3.org/2000/svg">
<path d="M7.78191 25.1165C7.50596 25.0613 7.2852 25.0062 7.00924 24.8958C6.73329 24.7854 6.51252 24.7302 6.29176 24.6198C5.79504 24.3991 5.35351 24.1231 4.91199 23.792C4.02893 23.1849 3.31145 22.357 2.75954 21.3636C2.20763 20.4253 1.87649 19.3215 1.8213 18.2729C1.76611 17.721 1.8213 17.2242 1.87649 16.6723C1.93168 16.3964 1.98687 16.1756 2.04206 15.8997C2.09725 15.6237 2.20763 15.4029 2.26283 15.127L2.31802 15.8997C2.31802 16.1756 2.37321 16.3964 2.4284 16.6723C2.48359 17.169 2.59397 17.6658 2.70435 18.1073C2.92512 19.0455 3.25626 19.9286 3.75298 20.7565C4.2497 21.5843 4.80161 22.357 5.51909 23.0745C5.85023 23.4056 6.23657 23.7368 6.6229 24.0679C6.78848 24.2335 7.00924 24.3991 7.23 24.5646L7.78191 25.1165ZM7.61634 27.1034C7.45077 27.2138 7.23 27.269 7.00924 27.3242C6.78848 27.3794 6.6229 27.4346 6.40214 27.4346C6.01581 27.4897 5.57428 27.5449 5.13275 27.4897C4.30489 27.4346 3.42183 27.2138 2.70435 26.8275C1.93168 26.4411 1.26939 25.834 0.827863 25.1165C0.6071 24.7854 0.386336 24.3991 0.220764 24.0127C0.165573 23.8471 0.110382 23.6264 0.0551908 23.4056C0.0551908 23.24 0 23.0745 0 22.8537C0.165573 23.0193 0.275954 23.1849 0.386336 23.2952C0.551909 23.4608 0.662291 23.6264 0.772672 23.7368C1.04863 24.0127 1.26939 24.2887 1.54534 24.5094C2.09725 25.0062 2.64916 25.4477 3.31145 25.7788C3.91855 26.11 4.63603 26.3859 5.29832 26.6067C5.62947 26.7171 6.01581 26.7723 6.40214 26.8826C6.56771 26.9378 6.78848 26.9378 6.95405 26.993C7.23 27.0482 7.39558 27.0482 7.61634 27.1034ZM20.0895 0.280639C20.3654 0.33583 20.5862 0.446212 20.8622 0.556593C21.1381 0.666975 21.3589 0.777357 21.5796 0.887739C22.0763 1.16369 22.5179 1.43965 22.9594 1.77079C23.8425 2.43308 24.5599 3.31614 25.0567 4.30957C25.5534 5.30301 25.8293 6.40683 25.8293 7.45545C25.8293 8.00736 25.7741 8.50408 25.6638 9.05599C25.6086 9.33194 25.5534 9.55271 25.443 9.82866C25.3326 10.1046 25.2774 10.3254 25.167 10.5461L25.1118 9.77347C25.1118 9.49752 25.1118 9.27675 25.0567 9.0008L24.8911 7.51064C24.7255 6.5724 24.3944 5.63415 23.9528 4.7511C23.5113 3.86805 22.9594 3.09537 22.2971 2.37789C21.966 1.99156 21.5796 1.66041 21.2485 1.27408C21.0829 1.1085 20.8622 0.94293 20.6414 0.777357L20.0895 0.280639ZM24.8911 0.0598755C25.1118 0.115066 25.2774 0.170257 25.443 0.280639C25.6086 0.33583 25.8293 0.446212 25.9949 0.556593C26.326 0.777357 26.6572 0.998121 26.9883 1.27408C27.5954 1.82598 28.0922 2.48827 28.3681 3.26095C28.6993 4.03362 28.8096 4.86148 28.6993 5.68935C28.6441 6.07568 28.5337 6.46202 28.4233 6.84835C28.3681 7.01393 28.2577 7.23469 28.2025 7.40026C28.0922 7.56583 28.037 7.73141 27.8714 7.89698V7.34507V6.79316C27.8714 6.40683 27.8162 6.07568 27.8162 5.74454C27.7058 5.02705 27.5954 4.36476 27.3195 3.75766C27.0435 3.09537 26.7124 2.54347 26.326 1.93637C26.1053 1.66041 25.8845 1.32927 25.6638 1.05331C25.5534 0.887739 25.443 0.777357 25.2774 0.611784C25.167 0.33583 25.0015 0.170257 24.8911 0.0598755Z" fill="#42ADE2"/>
<path d="M4.41544 8.28332C3.31163 8.78004 2.92529 10.1046 3.42201 11.2084L10.3761 25.7236L14.2394 23.9023L7.28537 9.33195C6.78865 8.22813 5.51926 7.73141 4.41544 8.28332ZM22.6836 19.8182L26.7678 17.8865L18.8203 1.32927C18.2684 0.225454 16.9438 -0.271264 15.7848 0.280645C14.6809 0.832554 14.1842 2.15713 14.7361 3.31614L22.6836 19.8182Z" fill="#FFDD67"/>
<path d="M15.8396 0.225467C15.7292 0.280658 15.6188 0.335849 15.5084 0.446231C16.557 0.170276 17.6609 0.666994 18.1576 1.66043L26.1051 18.2177L26.8226 17.8865L18.8751 1.32928C18.3232 0.170277 16.9986 -0.326441 15.8396 0.225467Z" fill="#EBA352"/>
<path d="M14.2392 23.8472L18.4889 21.8051L10.3758 4.91668C9.82389 3.75767 8.38893 3.20576 7.22992 3.75767C6.07091 4.30958 5.57419 5.74454 6.1261 6.90355L14.2392 23.8472Z" fill="#FFDD67"/>
<path d="M7.23007 3.81287C7.11969 3.86806 7.00931 3.92325 6.89893 4.03363C7.94755 3.75768 9.16175 4.25439 9.65847 5.30302L14.6808 15.8445L15.895 16.562L10.376 4.97187C9.82404 3.75768 8.44427 3.26096 7.23007 3.81287Z" fill="#EBA352"/>
<path d="M17.8266 20.4805L22.0763 18.4385L13.9632 1.55005C13.4113 0.391038 11.9763 -0.160871 10.8173 0.446229C9.65831 0.998137 9.1616 2.4331 9.7135 3.59211L17.8266 20.4805Z" fill="#FFDD67"/>
<path d="M10.8173 0.391022C10.7069 0.446213 10.5965 0.556594 10.4861 0.611785C11.5348 0.335831 12.749 0.832549 13.2457 1.88118L18.9303 13.8024L20.1445 14.5199L13.9632 1.55003C13.4112 0.335831 11.9763 -0.160887 10.8173 0.391022ZM4.41513 8.28332C4.30475 8.33851 4.19437 8.3937 4.08398 8.50408C5.07742 8.22813 6.12605 8.72485 6.56757 9.71828L10.7069 18.3833L11.9211 19.1007L7.28506 9.38714C6.78834 8.22813 5.51895 7.73141 4.41513 8.28332Z" fill="#EBA352"/>
<path d="M32.4521 6.62763C30.9619 5.46862 28.5335 6.73801 27.3193 10.7118C26.4915 13.4713 26.3811 14.2992 24.615 15.127L23.6215 13.085C23.6215 13.085 7.94732 20.6461 8.55442 21.8603C8.55442 21.8603 10.4309 27.7105 13.632 30.4149C18.3784 34.499 29.4718 30.1389 29.9685 19.5975C30.2444 13.4713 34.0526 7.89702 32.4521 6.62763Z" fill="#FFDD67"/>
<path d="M32.4525 6.62761C32.1765 6.40684 31.8454 6.29646 31.5142 6.24127C31.5694 6.29646 31.6798 6.29646 31.735 6.35165C33.3907 7.62104 31.6798 10.5462 30.7416 13.1953C29.9689 15.2926 29.3066 17.445 29.417 19.5423C29.8585 28.704 20.6416 33.064 15.1226 31.4083C20.5313 33.6711 30.576 29.3663 30.1345 19.8182C30.0241 17.721 30.6312 15.6789 31.4591 13.4713C32.3421 10.8221 34.053 7.897 32.4525 6.62761Z" fill="#EBA352"/>
<path d="M25.1121 14.9063C21.6903 15.2926 16.6679 20.2046 20.2001 25.5581C17.6061 20.1494 21.8558 16.5068 24.5602 15.2374C24.8361 15.0166 25.1121 14.9063 25.1121 14.9063Z" fill="#EBA352"/>
</svg>
