<svg width="81" height="14" viewBox="0 0 81 14" fill="none" xmlns="http://www.w3.org/2000/svg">
<path d="M10.3405 13.4011H8.27602L2.06449 4.00224V13.4011H0V0.796813H2.06449L8.27602 10.1776V0.796813H10.3405V13.4011ZM22.1973 8.16739C22.1973 8.54166 22.1731 8.87976 22.1248 9.18159H14.5007C14.5611 9.97841 14.8569 10.6182 15.3881 11.1012C15.9193 11.5841 16.5712 11.8256 17.3439 11.8256C18.4546 11.8256 19.2394 11.3607 19.6982 10.4311H21.9256C21.6238 11.3486 21.0745 12.1032 20.2776 12.6948C19.4929 13.2743 18.515 13.5641 17.3439 13.5641C16.3901 13.5641 15.533 13.3528 14.7724 12.9302C14.0238 12.4956 13.4323 11.8919 12.9976 11.1193C12.5751 10.3345 12.3638 9.42904 12.3638 8.40283C12.3638 7.37662 12.569 6.47717 12.9795 5.7045C13.4021 4.91975 13.9876 4.31611 14.7361 3.89355C15.4967 3.47099 16.366 3.25971 17.3439 3.25971C18.2856 3.25971 19.1247 3.46495 19.8611 3.87544C20.5976 4.28592 21.1711 4.86545 21.5816 5.61398C21.992 6.35044 22.1973 7.20155 22.1973 8.16739ZM20.0422 7.5155C20.0301 6.7549 19.7585 6.14516 19.2273 5.68638C18.6961 5.2276 18.0381 4.99826 17.2534 4.99826C16.5411 4.99826 15.9314 5.2276 15.4243 5.68638C14.9172 6.13308 14.6154 6.74283 14.5188 7.5155H20.0422ZM37.6296 3.42268L34.5329 13.4011H32.3598L30.3496 6.0305L28.3394 13.4011H26.1663L23.0514 3.42268H25.1522L27.2348 11.4453L29.3536 3.42268H31.5086L33.5369 11.4091L35.6014 3.42268H37.6296ZM48.0245 13.5278C47.1794 13.5278 46.4188 13.3829 45.7427 13.0932C45.0667 12.7914 44.5354 12.3689 44.1491 11.8256C43.7627 11.2823 43.5696 10.6484 43.5696 9.92405H45.7789C45.8272 10.4673 46.0385 10.914 46.4128 11.2641C46.7991 11.6142 47.3363 11.7893 48.0245 11.7893C48.7368 11.7893 49.2922 11.6203 49.6906 11.2822C50.089 10.9321 50.2882 10.4855 50.2882 9.94217C50.2882 9.51961 50.1614 9.17553 49.9079 8.90992C49.6664 8.64432 49.3586 8.43908 48.9843 8.2942C48.6222 8.14932 48.1151 7.99236 47.4631 7.82333C46.6421 7.60602 45.9721 7.38869 45.453 7.17138C44.9459 6.94199 44.5113 6.59187 44.1491 6.12102C43.7869 5.65017 43.6058 5.02242 43.6058 4.23767C43.6058 3.51329 43.7869 2.87944 44.1491 2.33616C44.5113 1.79287 45.0183 1.37634 45.6703 1.08659C46.3222 0.796838 47.0768 0.651955 47.934 0.651955C49.1534 0.651955 50.1494 0.959786 50.922 1.57551C51.7068 2.17916 52.1414 3.01221 52.2259 4.07464H49.9441C49.9079 3.61586 49.6906 3.22351 49.2922 2.89754C48.8938 2.57156 48.3686 2.40855 47.7167 2.40855C47.1251 2.40855 46.6422 2.55948 46.2679 2.86131C45.8936 3.16313 45.7065 3.59778 45.7065 4.16521C45.7065 4.55155 45.8212 4.87147 46.0506 5.125C46.292 5.36646 46.5939 5.55962 46.9561 5.7045C47.3183 5.84937 47.8132 6.00634 48.441 6.17536C49.2741 6.40475 49.9502 6.63416 50.4693 6.86355C51.0006 7.09293 51.4472 7.4491 51.8094 7.93202C52.1837 8.40287 52.3708 9.03666 52.3708 9.83348C52.3708 10.4734 52.1958 11.0771 51.8456 11.6445C51.5076 12.2119 51.0066 12.6707 50.3425 13.0208C49.6906 13.3588 48.9179 13.5278 48.0245 13.5278ZM54.1184 8.3666C54.1184 7.36453 54.3236 6.47717 54.7341 5.7045C55.1567 4.93182 55.7241 4.33422 56.4364 3.91167C57.1608 3.47704 57.9577 3.25971 58.8269 3.25971C59.6117 3.25971 60.2938 3.41668 60.8733 3.73058C61.4649 4.0324 61.9357 4.41268 62.2858 4.87145V3.42268H64.3684V13.4011H62.2858V11.9161C61.9357 12.3869 61.4588 12.7793 60.8552 13.0932C60.2515 13.4071 59.5634 13.5641 58.7907 13.5641C57.9335 13.5641 57.1487 13.3467 56.4364 12.9121C55.7241 12.4654 55.1567 11.8497 54.7341 11.0649C54.3236 10.2681 54.1184 9.36866 54.1184 8.3666ZM62.2858 8.40283C62.2858 7.71466 62.1409 7.11707 61.8512 6.61C61.5735 6.10293 61.2053 5.71662 60.7465 5.45101C60.2877 5.1854 59.7927 5.0526 59.2615 5.0526C58.7303 5.0526 58.2353 5.1854 57.7766 5.45101C57.3178 5.70454 56.9435 6.08481 56.6537 6.59188C56.376 7.08688 56.2372 7.67843 56.2372 8.3666C56.2372 9.05476 56.376 9.65846 56.6537 10.1776C56.9435 10.6967 57.3178 11.0951 57.7766 11.3728C58.2474 11.6384 58.7423 11.7712 59.2615 11.7712C59.7927 11.7712 60.2877 11.6384 60.7465 11.3728C61.2053 11.1072 61.5735 10.7208 61.8512 10.2138C62.1409 9.69463 62.2858 9.09099 62.2858 8.40283ZM69.1443 0V13.4011H67.0798V0H69.1443ZM81 8.16739C81 8.54166 80.9759 8.87976 80.9276 9.18159H73.3035C73.3638 9.97841 73.6596 10.6182 74.1909 11.1012C74.7221 11.5841 75.374 11.8256 76.1467 11.8256C77.2574 11.8256 78.0422 11.3607 78.5009 10.4311H80.7284C80.4266 11.3486 79.8772 12.1032 79.0804 12.6948C78.2957 13.2743 77.3177 13.5641 76.1467 13.5641C75.1929 13.5641 74.3357 13.3528 73.5751 12.9302C72.8266 12.4956 72.235 11.8919 71.8004 11.1193C71.3778 10.3345 71.1665 9.42904 71.1665 8.40283C71.1665 7.37662 71.3718 6.47717 71.7822 5.7045C72.2048 4.91975 72.7904 4.31611 73.5389 3.89355C74.2995 3.47099 75.1687 3.25971 76.1467 3.25971C77.0884 3.25971 77.9274 3.46495 78.6639 3.87544C79.4004 4.28592 79.9738 4.86545 80.3843 5.61398C80.7948 6.35044 81 7.20155 81 8.16739ZM78.845 7.5155C78.8329 6.7549 78.5613 6.14516 78.0301 5.68638C77.4989 5.2276 76.8409 4.99826 76.0561 4.99826C75.3438 4.99826 74.7341 5.2276 74.227 5.68638C73.72 6.13308 73.4182 6.74283 73.3216 7.5155H78.845Z" fill="#364152"/>
</svg>
