<svg width="44" height="14" viewBox="0 0 44 14" fill="none" xmlns="http://www.w3.org/2000/svg">
<path d="M4.48182 13.6093C3.63162 13.6093 2.86643 13.4635 2.18627 13.172C1.50611 12.8684 0.971709 12.4433 0.583046 11.8968C0.194382 11.3502 0 10.7126 0 9.98381H2.22272C2.2713 10.5304 2.48385 10.9797 2.86037 11.332C3.24903 11.6842 3.78951 11.8603 4.48182 11.8603C5.19842 11.8603 5.75712 11.6903 6.15793 11.3502C6.55874 10.998 6.75914 10.5486 6.75914 10.002C6.75914 9.57693 6.63162 9.23078 6.37656 8.96357C6.13365 8.69637 5.8239 8.48989 5.44738 8.34414C5.08301 8.19839 4.57286 8.04048 3.91699 7.87044C3.09108 7.65181 2.41701 7.43318 1.89474 7.21456C1.38462 6.98379 0.947418 6.63156 0.583046 6.15787C0.218674 5.68419 0.0364481 5.05266 0.0364481 4.26319C0.0364481 3.53445 0.218674 2.89678 0.583046 2.35022C0.947418 1.80366 1.4575 1.38463 2.11337 1.09313C2.76924 0.801636 3.52835 0.65588 4.3907 0.65588C5.61742 0.65588 6.61947 0.965565 7.3968 1.585C8.18627 2.19228 8.62348 3.03035 8.7085 4.09917H6.41295C6.37651 3.63764 6.15794 3.24292 5.75713 2.91498C5.35632 2.58705 4.82794 2.42306 4.17207 2.42306C3.57693 2.42306 3.0911 2.57489 2.71458 2.87853C2.33806 3.18218 2.14982 3.61944 2.14982 4.19029C2.14982 4.57896 2.26518 4.9008 2.49595 5.15586C2.73887 5.39877 3.04253 5.59309 3.40691 5.73884C3.77128 5.88459 4.26927 6.0425 4.90085 6.21254C5.7389 6.44331 6.41905 6.6741 6.94132 6.90487C7.47573 7.13564 7.9251 7.49395 8.28947 7.97978C8.66598 8.45347 8.85429 9.09107 8.85429 9.89269C8.85429 10.5364 8.67814 11.1437 8.32592 11.7146C7.98583 12.2854 7.48177 12.747 6.81375 13.0992C6.15788 13.4393 5.3806 13.6093 4.48182 13.6093ZM20.5061 8.21657C20.5061 8.59309 20.4818 8.93323 20.4332 9.23687H12.7632C12.8239 10.0385 13.1214 10.6822 13.6559 11.168C14.1903 11.6538 14.8462 11.8968 15.6235 11.8968C16.7409 11.8968 17.5303 11.4291 17.9919 10.4939H20.2328C19.9292 11.417 19.3765 12.1761 18.5749 12.7712C17.7855 13.3542 16.8016 13.6457 15.6235 13.6457C14.664 13.6457 13.8016 13.4332 13.0364 13.0081C12.2834 12.5708 11.6883 11.9636 11.251 11.1862C10.8259 10.3968 10.6134 9.48581 10.6134 8.45342C10.6134 7.42103 10.8198 6.51617 11.2328 5.73884C11.6579 4.94937 12.2469 4.3421 13 3.91699C13.7652 3.49189 14.6397 3.27934 15.6235 3.27934C16.5709 3.27934 17.415 3.48582 18.1559 3.89877C18.8968 4.31173 19.4737 4.89475 19.8866 5.64778C20.2996 6.38867 20.5061 7.24491 20.5061 8.21657ZM18.3381 7.56075C18.3259 6.79557 18.0527 6.18216 17.5182 5.72062C16.9838 5.25908 16.3219 5.02835 15.5324 5.02835C14.8158 5.02835 14.2024 5.25908 13.6923 5.72062C13.1822 6.17001 12.8786 6.78343 12.7814 7.56075H18.3381ZM27.6144 3.27934C28.4038 3.27934 29.1083 3.44333 29.7277 3.77126C30.3593 4.0992 30.8512 4.58503 31.2034 5.22876C31.5557 5.87248 31.7318 6.64982 31.7318 7.56075V13.4818H29.6731V7.87044C29.6731 6.97165 29.4484 6.28542 28.999 5.81174C28.5496 5.32591 27.9362 5.08302 27.1589 5.08302C26.3816 5.08302 25.7621 5.32591 25.3006 5.81174C24.8512 6.28542 24.6265 6.97165 24.6265 7.87044V13.4818H22.5496V3.44329H24.6265V4.5911C24.9666 4.17814 25.3978 3.8563 25.92 3.62553C26.4544 3.39476 27.0192 3.27934 27.6144 3.27934ZM33.6882 8.41697C33.6882 7.40888 33.8947 6.51617 34.3077 5.73884C34.7328 4.96152 35.3036 4.36032 36.0202 3.93522C36.749 3.49797 37.5566 3.27934 38.4433 3.27934C39.0991 3.27934 39.7429 3.42509 40.3745 3.71659C41.0182 3.99594 41.5283 4.37249 41.9049 4.84617V0H44V13.4818H41.9049V11.9696C41.5648 12.4554 41.0911 12.8562 40.4838 13.172C39.8887 13.4878 39.2024 13.6457 38.4251 13.6457C37.5506 13.6457 36.749 13.4271 36.0202 12.9898C35.3036 12.5405 34.7328 11.921 34.3077 11.1316C33.8947 10.3299 33.6882 9.42507 33.6882 8.41697ZM41.9049 8.45342C41.9049 7.76112 41.7591 7.15992 41.4676 6.6498C41.1882 6.13968 40.8178 5.75104 40.3562 5.48383C39.8947 5.21662 39.3967 5.08302 38.8623 5.08302C38.3279 5.08302 37.83 5.21662 37.3684 5.48383C36.9069 5.73889 36.5303 6.12145 36.2388 6.63157C35.9595 7.12955 35.8198 7.72467 35.8198 8.41697C35.8198 9.10928 35.9595 9.71662 36.2388 10.2389C36.5303 10.7612 36.9069 11.1619 37.3684 11.4413C37.8421 11.7085 38.34 11.8421 38.8623 11.8421C39.3967 11.8421 39.8947 11.7085 40.3562 11.4413C40.8178 11.1741 41.1882 10.7854 41.4676 10.2753C41.7591 9.753 41.9049 9.14573 41.9049 8.45342Z" fill="white"/>
</svg>
